<svg xmlns="http://www.w3.org/2000/svg" version="1.1" xmlns:xlink="http://www.w3.org/1999/xlink" xmlns:svgjs="http://svgjs.dev/svgjs" width="100%" height="100%" viewBox="0 0 1000 600"><rect width="1000" height="600" x="0" y="0" fill="#f7f7f7"/><g><circle r="166.66666666666666" cx="308.55236307779944" cy="330.77459776826896" fill="#006838" transform="matrix(0.8809909521334707,0,0,0.8809909521334706,0,8.590582674158384)"/><path d="M369.8580541638579 357.15143827936595L369.8580541638579 357.15143827936595L369.9689393963902 397.9849251593737Q366.44833326349067 401.4778099841401 362.0683665784661 401.4778099841401L362.0683665784661 401.4778099841401Q360.9872355612765 401.4778099841401 359.87838323595383 401.22831821094246Q358.74180960249805 401.0065477458779 357.49435073651006 400.4521215832166Q356.21917056238897 399.92541672868833 355.4429739346631 399.5927610310915Q354.6667773069372 399.23238402536174 353.14210535961854 398.40074478136967Q351.6451547204329 397.5968268455107 351.25705640657 397.40277768857925L351.25705640657 397.40277768857925Q342.4694017283877 401.0065477458779 330.82645231249955 403.39058024532176Q319.18350289661146 405.7746127447655 308.9543401955097 405.7746127447655L308.9543401955097 405.7746127447655Q294.3174895012503 405.7746127447655 282.0369499983016 401.58869521667236Q269.75641049535295 397.40277768857925 261.1905262822352 390.2784014983811Q252.6246420691175 383.1540253081828 246.63683951237505 373.67333792667387Q240.6213156474995 364.16492923703186 237.79374221792665 353.5476682220673Q234.96616878835383 342.9026858989695 234.96616878835383 331.6201134888113L234.96616878835383 331.6201134888113Q234.96616878835383 316.3179513993582 239.9560042523059 302.4572973328248Q244.91811840812488 288.6243645744243 253.67805177817405 278.28431664079034Q262.4657064563563 267.9719900152894 275.4115573544986 261.87330222601463Q288.385129560774 255.7746144367399 303.38235726076323 255.7746144367399L303.38235726076323 255.7746144367399Q315.27479844984896 255.7746144367399 327.72166580159603 260.01597458109916Q340.14081184521007 264.2573347254584 347.34835195980753 272.54600585724546L347.34835195980753 272.54600585724546Q347.34835195980753 257.93687647111915 351.1461711740377 257.93687647111915L351.1461711740377 257.93687647111915L362.0683665784661 257.93687647111915Q366.75326765295443 257.93687647111915 366.75326765295443 268.0551539396886L366.75326765295443 268.0551539396886L366.75326765295443 292.14497070732386Q366.75326765295443 297.68923233393724 366.1988414902931 300.26731399031246Q365.6721366357648 302.8453956466877 364.84049739177283 303.48298573374825Q364.00885814778076 304.12057582080877 362.0683665784661 304.31462497774027L362.0683665784661 304.31462497774027L353.97374460361056 304.31462497774027Q353.1975479758847 304.31462497774027 351.20161379030384 302.0691990189618Q349.205679604723 299.8237730601834 346.57215533208165 296.4694947760823Q343.9386310594403 293.1152164919812 339.69727091508105 289.1510694289526Q335.45591077072174 285.2146436740571 330.68784577183425 281.860365389956Q325.89205946481366 278.5060871058549 319.12806028034527 276.26066114707646Q312.36406109587693 274.015235188298 305.04563574874726 274.015235188298L305.04563574874726 274.015235188298Q295.9807679892343 274.015235188298 288.2742443282417 277.2863495479999Q280.59544197538213 280.52974259956875 275.2175081975671 286.0462829180491Q269.8672957278852 291.5628232365294 266.0140338973889 298.9089698917922Q262.1607720668926 306.2551165470549 260.3588870382432 314.46062375444274Q258.5570020095939 322.6384096536975 258.5570020095939 331.2042938668152L258.5570020095939 331.2042938668152Q258.5570020095939 339.4098010742031 260.6638214277069 347.1440460433288Q262.742919537687 354.9060123205875 267.15060753084464 361.80861804572123Q271.53057421586925 368.73894507898797 277.7124259295432 373.9505510080046Q283.8942776432171 379.1621569370211 292.6264897051332 382.23922213979165Q301.35870176704935 385.3162873425621 311.58786446815105 385.3162873425621L311.58786446815105 385.3162873425621Q330.3829113823705 385.3162873425621 348.31859774446485 380.82543542500514L348.31859774446485 380.82543542500514L348.31859774446485 360.7552083366646Q348.31859774446485 357.4286513606967 347.81961419806964 355.1555040937851Q347.34835195980753 352.85463551874057 345.9345652450211 350.5260456355629Q344.5207785302347 348.1697344442522 341.3605494030651 347.0054395026634Q338.1725989677623 345.84114456107466 333.40453396887483 345.84114456107466L333.40453396887483 345.84114456107466Q331.54720632395936 345.84114456107466 330.9373375450318 344.1778660730906Q330.2997474579713 342.5145875851066 330.2997474579713 338.2455061326142L330.2997474579713 338.2455061326142Q330.2997474579713 331.70327741321046 333.5154192014071 326.54711410046L333.5154192014071 326.54711410046Q346.07317178568644 327.6005238095165 358.2705473642359 327.6005238095165L358.2705473642359 327.6005238095165Q363.23266152005493 327.6005238095165 368.1116117514747 327.378753344452Q372.9905619828945 327.12926157125435 376.09534849379804 326.82432718179064Q379.22785631283455 326.54711410046 379.8931677080282 326.54711410046L379.8931677080282 326.54711410046Q380.6693643357541 327.3233107281858 381.4178396553469 330.2063267740248Q382.1385936668066 333.06162151173066 382.1385936668066 335.30704747050913L382.1385936668066 335.30704747050913Q382.1385936668066 339.10486668473936 380.86341349268554 341.29485002725164Q379.61595462669754 343.4848333697639 377.81406959804815 344.48280046255434Q376.0121845693988 345.45304624721166 374.1825782326164 346.50645595626827Q372.38069320396704 347.58758697345786 371.13323433797905 350.165668629833Q369.8580541638579 352.7437502862083 369.8580541638579 357.15143827936595Z " fill="#f7f7f7" transform="matrix(0.8809909521334707,0,0,0.8809909521334706,0,8.590582674158384)"/><path d="M606.6988553800571 316.23573652698656L598.7784212744004 316.23573652698656L598.7784212744004 379.27371208022635Q598.7784212744004 380.6842003456172 598.9140451460727 381.4979435756504Q599.0767937920793 382.3116868056836 599.5921645044336 383.36955300472687Q600.107535216788 384.4002944294356 601.4637739335101 384.9427899161243Q602.7928878758977 385.4581606284787 604.8814954996496 385.4581606284787L604.8814954996496 385.4581606284787Q609.6554557825111 385.4581606284787 613.0731773486507 386.59740115052523Q616.5180236891247 387.73664167257175 616.5180236891247 390.0422474909992L616.5180236891247 390.0422474909992Q616.5180236891247 401.19052974245426 613.3715498663295 403.9572567245672L613.3715498663295 403.9572567245672Q602.9827612962388 403.1977630432028 588.959252965333 403.1977630432028L588.959252965333 403.1977630432028Q571.9791442319732 403.1977630432028 563.5975889626311 403.9572567245672L563.5975889626311 403.9572567245672Q560.451115139836 401.1091554194509 560.451115139836 390.0422474909992L560.451115139836 390.0422474909992Q560.451115139836 387.73664167257175 563.5975889626311 386.59740115052523Q566.7440627854262 385.4581606284787 571.1382762276056 385.4581606284787L571.1382762276056 385.4581606284787Q574.854370311424 385.4581606284787 575.9936108334705 383.88492371708116Q577.132851355517 382.3116868056836 577.132851355517 379.46358550056743L577.132851355517 379.46358550056743L577.132851355517 316.23573652698656L575.8037374131294 316.23573652698656Q563.8688367059756 316.42560994732764 563.2992164449523 316.8867311110131L563.2992164449523 316.8867311110131Q558.5523809364252 316.8867311110131 558.5523809364252 308.6950492620121L558.5523809364252 308.6950492620121Q558.5523809364252 302.4834759394252 561.6988547592202 301.34423541737874L561.6988547592202 301.34423541737874Q563.7874623829723 301.5341088377198 573.9863775327219 301.5341088377198L573.9863775327219 301.5341088377198L577.132851355517 301.5341088377198L577.132851355517 296.2990273911728Q577.132851355517 286.8596059227875 579.1400846562656 279.6172911754919Q581.1473179570141 272.3749764281963 584.4294156514815 267.92651343734804Q587.7115133459488 263.5051752208342 592.2956002084692 260.6841986900524Q596.8796870709896 257.8632221592706 601.4908987078445 256.83248073456184Q606.1292351190339 255.77461453551865 611.3643165655809 255.77461453551865L611.3643165655809 255.77461453551865Q623.0008447550558 255.77461453551865 631.4908991217358 261.95906308377107Q639.9809534884156 268.17063640635797 639.9809534884156 277.8813056180877L639.9809534884156 277.8813056180877Q639.9809534884156 284.5811248786945 635.6409895949051 287.998846444834Q631.3010257013947 291.4436927853079 625.0080780558044 291.4436927853079L625.0080780558044 291.4436927853079Q622.5397235913704 291.4436927853079 621.6717308126683 290.6841991039436Q620.8037380339662 289.89758064824485 620.8037380339662 288.1887198651751L620.8037380339662 288.1887198651751L618.9863781535587 272.0766039105174Q614.0496692246904 269.60824944608333 609.6554557825111 269.60824944608333L609.6554557825111 269.60824944608333Q603.362508136921 269.60824944608333 600.4872820574702 274.46358405194815Q597.6391807523539 279.318918657813 597.6391807523539 286.9409802457908Q597.6391807523539 294.59016660810306 598.7784212744004 301.4527345147165L598.7784212744004 301.4527345147165L607.9465949994415 301.4527345147165Q617.0876439501478 301.4527345147165 620.2341177729429 301.15436199703765L620.2341177729429 301.15436199703765Q623.380591595738 302.2936025190841 623.380591595738 308.505175841671L623.380591595738 308.505175841671Q623.380591595738 316.696857690672 618.6066313128765 316.696857690672L618.6066313128765 316.696857690672Q618.335383569532 316.5069842703309 615.3787831670782 316.3713603986588Q612.422182764624 316.23573652698656 609.5469566851734 316.23573652698656L609.5469566851734 316.23573652698656L606.6988553800571 316.23573652698656ZM650.8579879965263 375.50336844773904Q646.2739011340059 365.0603303289795 646.2739011340059 352.17606252012024Q646.2739011340059 339.3189194855954 650.8579879965263 328.9030061411703Q655.4149500847122 318.5142175710796 663.0641364470245 312.0856460538172Q670.6861980350023 305.6570745365548 680.1256195033876 302.21222819608084Q689.5650409717729 298.76738185560686 699.8724552188603 298.76738185560686L699.8724552188603 298.76738185560686Q710.0713703686099 298.76738185560686 719.5107918369953 302.21222819608084Q728.9502133053805 305.6570745365548 736.5180253446894 312.0856460538172Q744.1129621583327 318.5142175710796 748.6970490208532 328.9030061411703Q753.2540111090392 339.3189194855954 753.2540111090392 352.17606252012024Q753.2540111090392 365.0603303289795 748.6970490208532 375.50336844773904Q744.1129621583327 385.9464065664987 736.5180253446894 392.42922763242996Q728.9502133053805 398.9120486983612 719.5107918369953 402.3297702645008Q710.0713703686099 405.77461660497465 699.8724552188603 405.77461660497465L699.8724552188603 405.77461660497465Q689.5650409717729 405.77461660497465 680.1256195033876 402.3297702645008Q670.6861980350023 398.9120486983612 663.0641364470245 392.42922763242996Q655.4149500847122 385.9464065664987 650.8579879965263 375.50336844773904ZM677.8471384592946 324.8071652166698Q668.5975904112504 334.6263335257372 668.5975904112504 352.17606252012024Q668.5975904112504 369.72579151450327 677.8471384592946 379.59920937223956Q687.0966865073389 389.47262722997596 699.6825817985192 389.47262722997596L699.6825817985192 389.47262722997596Q705.6771569264305 389.47262722997596 711.2106108906564 387.0856470885452Q716.7440648548823 384.69866694711436 721.1654030713961 380.1688296332628Q725.6138660622443 375.6389923194113 728.2720939470195 368.39667757211566Q730.9574466061291 361.15436282482005 730.9574466061291 352.17606252012024Q730.9574466061291 343.22488698975485 728.2720939470195 335.9554474681248Q725.6138660622443 328.7131327208292 721.1654030713961 324.2375449556465Q716.7440648548823 319.7619571904638 711.2106108906564 317.3749770490331Q705.6771569264305 314.9879969076022 699.6825817985192 314.9879969076022L699.6825817985192 314.9879969076022Q687.0966865073389 314.9879969076022 677.8471384592946 324.8071652166698ZM764.7006658781731 375.50336844773904Q760.1437037899871 365.0603303289795 760.1437037899871 352.17606252012024Q760.1437037899871 339.3189194855954 764.7006658781731 328.9030061411703Q769.2847527406935 318.5142175710796 776.9068143286713 312.0856460538172Q784.5560006909835 305.6570745365548 793.9954221593689 302.21222819608084Q803.4348436277542 298.76738185560686 813.7151331005072 298.76738185560686L813.7151331005072 298.76738185560686Q823.9411730245912 298.76738185560686 833.3805944929765 302.21222819608084Q842.8200159613617 305.6570745365548 850.3878280006708 312.0856460538172Q857.982764814314 318.5142175710796 862.5397269025001 328.9030061411703Q867.1238137650205 339.3189194855954 867.1238137650205 352.17606252012024Q867.1238137650205 365.0603303289795 862.5397269025001 375.50336844773904Q857.982764814314 385.9464065664987 850.3878280006708 392.42922763242996Q842.8200159613617 398.9120486983612 833.3805944929765 402.3297702645008Q823.9411730245912 405.77461660497465 813.7151331005072 405.77461660497465L813.7151331005072 405.77461660497465Q803.4348436277542 405.77461660497465 793.9954221593689 402.3297702645008Q784.5560006909835 398.9120486983612 776.9068143286713 392.42922763242996Q769.2847527406935 385.9464065664987 764.7006658781731 375.50336844773904ZM791.6898163409414 324.8071652166698Q782.4402682928973 334.6263335257372 782.4402682928973 352.17606252012024Q782.4402682928973 369.72579151450327 791.6898163409414 379.59920937223956Q800.9393643889856 389.47262722997596 813.5252596801661 389.47262722997596L813.5252596801661 389.47262722997596Q819.5469595824119 389.47262722997596 825.0804135466377 387.0856470885452Q830.6138675108635 384.69866694711436 835.0352057273773 380.1688296332628Q839.4836687182257 375.6389923194113 842.1418966030008 368.39667757211566Q844.800124487776 361.15436282482005 844.800124487776 352.17606252012024Q844.800124487776 343.22488698975485 842.1418966030008 335.9554474681248Q839.4836687182257 328.7131327208292 835.0352057273773 324.2375449556465Q830.6138675108635 319.7619571904638 825.0804135466377 317.3749770490331Q819.5469595824119 314.9879969076022 813.5252596801661 314.9879969076022L813.5252596801661 314.9879969076022Q800.9393643889856 314.9879969076022 791.6898163409414 324.8071652166698ZM955.821825838641 358.9572561037304L955.821825838641 358.9572561037304L955.821825838641 334.05671326471395Q950.7494930381006 324.99703863701086 942.4493120917617 319.9518306108049Q934.1762559197574 314.90662258459895 925.3064547123954 314.90662258459895L925.3064547123954 314.90662258459895Q913.1003062618971 314.90662258459895 904.7458757668895 324.48166792465645Q896.3914452718818 334.05671326471395 896.3914452718818 352.3659359404613L896.3914452718818 352.3659359404613Q896.3914452718818 369.91566493484436 905.3697455765816 379.7348332439118Q914.320921106947 389.55400155297923 926.635568654783 389.55400155297923L926.635568654783 389.55400155297923Q931.9791491986678 389.55400155297923 937.1328563222115 387.6010178008995Q942.2594386714208 385.6480340488198 946.4637786932591 381.93193996500145Q950.6681187150972 378.2158458811831 953.2449722768691 372.24839552760625Q955.821825838641 366.2809451740293 955.821825838641 358.9572561037304ZM977.4673957575245 274.65345747228923L977.4673957575245 274.65345747228923L977.4673957575245 379.27371208022635Q977.4673957575245 380.60282602261384 977.6572691778657 381.4979435756504Q977.8471425982067 382.42018590302143 978.4710124078988 383.4238025533957Q979.0677574432565 384.4002944294356 980.5053704829818 384.99703946479326Q981.9429835227072 385.5666597258165 984.2214645668001 385.6480340488198L984.2214645668001 385.6480340488198Q993.1997648715001 386.02778088950197 993.1997648715001 389.66250065031704L993.1997648715001 389.66250065031704Q993.1997648715001 401.1091554194509 989.9447919513672 403.9572567245672L989.9447919513672 403.9572567245672Q984.7097105048201 403.1977630432028 978.606636279571 403.1977630432028L978.606636279571 403.1977630432028Q970.0080828155534 403.1977630432028 961.8164009665524 403.9572567245672L961.8164009665524 403.9572567245672Q955.821825838641 401.19052974245426 955.821825838641 390.69324207502575L955.821825838641 390.69324207502575L955.821825838641 389.85237407065813Q950.6681187150972 397.4744356586359 941.2286972467119 401.6245261318053Q931.7892757783267 405.77461660497465 921.7802340489183 405.77461660497465L921.7802340489183 405.77461660497465Q912.6120603238772 405.77461660497465 904.2305050545351 402.3297702645008Q895.8218250108586 398.9120486983612 889.0135066529141 392.4563524067644Q882.2051882949694 386.02778088950197 878.0822225961344 375.6389923194113Q873.9863816716339 365.2502037493206 873.9863816716339 352.3659359404613Q873.9863816716339 339.5087929059365 878.2720960164755 329.0928795615114Q882.5849351356516 318.7040909914207 889.7730003342783 312.2755194741583Q896.9610655329051 305.84694795689586 905.8308667402671 302.40210161642193Q914.7006679476292 298.95725527594794 924.3299628363555 298.87588095294467L924.3299628363555 298.87588095294467L924.9267078717133 298.87588095294467Q943.6970517111461 298.87588095294467 955.821825838641 312.8993892838504L955.821825838641 312.8993892838504L955.821825838641 287.91747212183066Q955.821825838641 282.8451393212903 952.8923502105214 280.7565316975384Q949.9899993567362 278.6679240737865 941.6898184103974 278.2881772331043L941.6898184103974 278.2881772331043Q940.4692035653476 277.98980471542546 940.116581499 277.04043761372003Q939.7910842069866 276.09107051201465 939.7910842069866 272.9445966892195L939.7910842069866 272.9445966892195Q939.7910842069866 268.0621373090202 940.8489504060298 264.34604322520187Q941.8796918307386 260.6299491413835 942.9375580297817 260.06032888036026L942.9375580297817 260.06032888036026Q950.8579921354384 261.11819507940345 958.100306882734 261.11819507940345L958.100306882734 261.11819507940345Q962.3860212275756 261.11819507940345 967.1599815104371 260.5756995927146Q971.9339417932986 260.06032888036026 972.205189536643 260.06032888036026L972.205189536643 260.06032888036026Q975.5415367797792 260.06032888036026 976.5451534301535 261.74206488909556Q977.5487700805278 263.3966761234965 977.5487700805278 269.41837602574225L977.5487700805278 269.41837602574225Q977.5487700805278 270.06937060976884 977.4945205318589 271.83248094150747Q977.4673957575245 273.5955912732461 977.4673957575245 274.65345747228923Z " fill="#006838" transform="matrix(0.8809909521334707,0,0,0.8809909521334706,0,8.590582674158384)"/></g></svg>